<?xml version="1.0" standalone="no"?><!DOCTYPE svg PUBLIC "-//W3C//DTD SVG 1.1//EN" "http://www.w3.org/Graphics/SVG/1.1/DTD/svg11.dtd"><svg t="1739946765314" class="icon" viewBox="0 0 1024 1024" version="1.1" xmlns="http://www.w3.org/2000/svg" p-id="27300" xmlns:xlink="http://www.w3.org/1999/xlink" width="200" height="200"><path d="M512 0c282.760533 0 512 229.239467 512 512 0 282.760533-229.239467 512-512 512-282.760533 0-512-229.239467-512-512C0 229.239467 229.239467 0 512 0z m249.275733 262.724267a256 256 0 0 0-394.581333 322.218666L325.973333 625.629867l-48.298666-48.298667-3.8912-3.515733a51.2 51.2 0 0 0-68.5056 3.515733l-3.345067 3.652267a51.2 51.2 0 0 0 3.345067 68.778666L253.610667 698.026667l-48.298667 48.264533-3.515733 3.8912a51.2 51.2 0 0 0 3.515733 68.5056l3.652267 3.345067a51.2 51.2 0 0 0 68.744533-3.345067l48.298667-48.264533 48.2304 48.264533 3.8912 3.515733a51.2 51.2 0 0 0 68.539733-3.515733l3.310933-3.652267a51.2 51.2 0 0 0-3.310933-68.744533l-48.2304-48.264533 40.6528-40.686934a256 256 0 0 0 322.218667-394.6496z m-289.621333 72.3968a153.6 153.6 0 1 1 217.224533 217.224533 153.6 153.6 0 0 1-217.224533-217.224533z" fill="#FF9CC8" p-id="27301"></path></svg>