<?xml version="1.0" standalone="no"?><!DOCTYPE svg PUBLIC "-//W3C//DTD SVG 1.1//EN"
        "http://www.w3.org/Graphics/SVG/1.1/DTD/svg11.dtd">
<svg t="1739950452173" class="icon" viewBox="0 0 1024 1024" version="1.1" xmlns="http://www.w3.org/2000/svg"
     p-id="69871" xmlns:xlink="http://www.w3.org/1999/xlink" width="200" height="200">
    <path d="M384 7.808a320 320 0 0 1 64.064 633.6L448 704h192v128H448v192H320v-192H128v-128h192v-62.592a320.128 320.128 0 0 1 64-633.6zM896 896v128h-128v-128h128z m-64-480a192 192 0 0 1 64 373.056V864h-128v-128a64 64 0 0 1 64-64 64 64 0 1 0-63.552-71.488L768 608v64h-128v-64a192 192 0 0 1 192-192zM384 135.808a192 192 0 1 0 0 384 192 192 0 0 0 0-384z"
          fill="#666666" p-id="69872"></path>
</svg>