<?xml version="1.0" standalone="no"?><!DOCTYPE svg PUBLIC "-//W3C//DTD SVG 1.1//EN" "http://www.w3.org/Graphics/SVG/1.1/DTD/svg11.dtd"><svg t="1739946614409" class="icon" viewBox="0 0 1024 1024" version="1.1" xmlns="http://www.w3.org/2000/svg" p-id="17613" xmlns:xlink="http://www.w3.org/1999/xlink" width="200" height="200"><path d="M64.178 512a446.709 446.709 0 1 0 893.419 0 446.709 446.709 0 1 0-893.418 0z" fill="#FFFFFF" p-id="17614"></path><path d="M510.88 578.903c-123.674 0-224.283-100.608-224.283-224.282S387.205 130.339 510.88 130.339 735.162 230.946 735.162 354.62 634.553 578.903 510.879 578.903z m0-364.806c-77.487 0-140.524 63.037-140.524 140.524s63.037 140.523 140.523 140.523 140.524-63.037 140.524-140.523-63.037-140.524-140.524-140.524z" fill="#FF3EC9" p-id="17615"></path><path d="M510.88 896.635c-23.121 0-41.88-18.745-41.88-41.879V537.024c0-23.134 18.759-41.879 41.88-41.879s41.878 18.745 41.878 41.879v317.732c0 23.134-18.758 41.88-41.879 41.88z" fill="#FF3EC9" p-id="17616"></path><path d="M669.753 737.763h-317.72c-23.12 0-41.878-18.745-41.878-41.879s18.758-41.879 41.879-41.879h317.719c23.12 0 41.879 18.745 41.879 41.879s-18.759 41.879-41.88 41.879z" fill="#FF3EC9" p-id="17617"></path></svg>