<?xml version="1.0" standalone="no"?><!DOCTYPE svg PUBLIC "-//W3C//DTD SVG 1.1//EN"
        "http://www.w3.org/Graphics/SVG/1.1/DTD/svg11.dtd">
<svg t="1739946754412" class="icon" viewBox="0 0 1024 1024" version="1.1" xmlns="http://www.w3.org/2000/svg"
     p-id="26345" xmlns:xlink="http://www.w3.org/1999/xlink" width="200" height="200">
    <path d="M512 0c282.760533 0 512 229.239467 512 512 0 282.760533-229.239467 512-512 512-282.760533 0-512-229.239467-512-512C0 229.239467 229.239467 0 512 0z m273.066667 221.866667h-204.8l-4.9152 0.238933A51.2 51.2 0 0 0 529.066667 273.066667l0.273066 5.2224A51.2 51.2 0 0 0 580.266667 324.266667h83.3536l-77.380267 77.4144a256 256 0 1 0 71.953067 72.840533l75.639466-75.639467L733.866667 477.866667l0.238933 4.9152A51.2 51.2 0 0 0 836.266667 477.866667V273.066667l-0.238934-4.9152A51.2 51.2 0 0 0 785.066667 221.866667zM335.121067 505.787733a153.6 153.6 0 1 1 217.224533 217.224534 153.6 153.6 0 0 1-217.224533-217.224534z"
          fill="#7AB5FF" p-id="26346"></path>
</svg>