<?xml version="1.0" standalone="no"?><!DOCTYPE svg PUBLIC "-//W3C//DTD SVG 1.1//EN" "http://www.w3.org/Graphics/SVG/1.1/DTD/svg11.dtd"><svg t="1739946643300" class="icon" viewBox="0 0 1024 1024" version="1.1" xmlns="http://www.w3.org/2000/svg" p-id="18588" xmlns:xlink="http://www.w3.org/1999/xlink" width="200" height="200"><path d="M512 512m-512 0a512 512 0 1 0 1024 0 512 512 0 1 0-1024 0Z" fill="#74BEF0" p-id="18589"></path><path d="M533.504 424.6528l128.6144-128.6144-92.416-1.0752a41.3184 41.3184 0 0 1-40.6528-40.6528 39.0656 39.0656 0 0 1 39.7312-39.7312l177.664 2.048a40.704 40.704 0 0 1 44.288 10.9568 41.1136 41.1136 0 0 1 11.008 44.3392l2.048 178.9952a39.0656 39.0656 0 0 1-39.68 39.7312 41.3184 41.3184 0 0 1-40.704-40.704l-1.1264-99.072-131.2768 131.2768c62.976 89.5488 55.808 212.5824-22.528 290.8672-87.9104 87.9104-232.1408 86.2208-322.0992-3.7376-89.9584-89.9584-91.648-234.1888-3.7376-322.048 78.336-78.336 201.3184-85.5552 290.816-22.528z m-230.912 288.4608c58.1632 58.2144 151.5008 59.2896 208.384 2.4064 56.832-56.832 55.808-150.1696-2.4576-208.384-58.2144-58.2144-151.552-59.3408-208.384-2.4576-56.8832 56.8832-55.808 150.2208 2.4064 208.384z" fill="#FFFFFF" p-id="18590"></path></svg>