<?xml version="1.0" standalone="no"?><!DOCTYPE svg PUBLIC "-//W3C//DTD SVG 1.1//EN" "http://www.w3.org/Graphics/SVG/1.1/DTD/svg11.dtd"><svg t="1739946661503" class="icon" viewBox="0 0 1024 1024" version="1.1" xmlns="http://www.w3.org/2000/svg" p-id="20412" xmlns:xlink="http://www.w3.org/1999/xlink" width="200" height="200"><path d="M512 512m-512 0a512 512 0 1 0 1024 0 512 512 0 1 0-1024 0Z" fill="#DBBED9" p-id="20413"></path><path d="M460.8 604.0576A227.9424 227.9424 0 0 1 509.44 153.6a227.84 227.84 0 0 1 38.4 452.4544v49.3056h84.48a43.52 43.52 0 0 1 0 87.04H547.84v79.36a43.52 43.52 0 0 1-87.04 0V742.4H376.32a43.52 43.52 0 0 1 0-87.04H460.8v-51.3024z m48.64-81.8176a140.8 140.8 0 1 0 0-281.6 140.8 140.8 0 0 0 0 281.6z" fill="#FFFFFF" p-id="20414"></path></svg>