<?xml version="1.0" standalone="no"?><!DOCTYPE svg PUBLIC "-//W3C//DTD SVG 1.1//EN" "http://www.w3.org/Graphics/SVG/1.1/DTD/svg11.dtd"><svg t="1739950364736" class="icon" viewBox="0 0 1024 1024" version="1.1" xmlns="http://www.w3.org/2000/svg" p-id="58076" xmlns:xlink="http://www.w3.org/1999/xlink" width="200" height="200"><path d="M512 512m-512 0a512 512 0 1 0 1024 0 512 512 0 1 0-1024 0Z" fill="#74A3F5" p-id="58077"></path><path d="M375.9616 542.72C283.8016 542.72 204.8 463.7184 204.8 375.9616 204.8 288.2048 283.8016 204.8 375.9616 204.8s171.1616 79.0016 171.1616 171.1616S463.7184 542.72 375.9616 542.72z m272.0768 276.48c-92.16 0-166.7584-79.0016-166.7584-171.1616S555.8784 481.28 648.0384 481.28 819.2 555.8784 819.2 648.0384 744.6016 819.2 648.0384 819.2zM634.88 266.24h30.72V512h-30.72V266.24z m-61.44 65.8432h153.6v30.72h-153.6v-30.72zM358.4 512h30.72v245.76H358.4V512z m-13.1584 193.0752l109.7216-4.352-79.0016 79.0016L296.96 709.4784h131.6352l-83.3536-4.4032z" fill="#FFFFFF" p-id="58078"></path></svg>